<svg xmlns="http://www.w3.org/2000/svg" viewBox="0 0 64 64" fill="none">
  <rect width="64" height="64" rx="12" fill="#1a2a1a"/>
  <path d="M20 14c0-2.2 1.8-4 4-4h16c2.2 0 4 1.8 4 4v36c0 2.2-1.8 4-4 4H24c-2.2 0-4-1.8-4-4V14z" fill="#2d4a2d"/>
  <rect x="27" y="12" width="10" height="2" rx="1" fill="#4ade80"/>
  <rect x="23" y="18" width="18" height="24" rx="2" fill="#0d1a0d"/>
  <circle cx="32" cy="48" r="2.5" fill="#4ade80"/>
  <path d="M26 30c0-3.3 2.7-6 6-6s6 2.7 6 6" stroke="#4ade80" stroke-width="1.5" stroke-linecap="round"/>
  <path d="M24 30c0-4.4 3.6-8 8-8s8 3.6 8 8" stroke="#22c55e" stroke-width="1.5" stroke-linecap="round" opacity="0.5"/>
</svg>
